# xmcd
# Track frame offsets:
# 150
# 13426
# 48197
# 73043
# 85469
# 103705
# 134829
# 155912
# 177111
# 199662
# 209138
# 222051
# 242412
# 264541
# 284847
#
# Disc length: 4086 seconds
# Revision: 0
# Processed by: cddbd v1.5.2PL0 Copyright (c) Steve Scherf et al.
# Submitted via: VisiTrax 2.10.0.248 - For more info visit www.synapsa.com
#
DISCID=f20ff40f
DTITLE=Various Artist - Rattlesnake Guitar - The Music of Peter Green (2 o
DTITLE=f 2)
DYEAR=1900
DGENRE=Blues Rock
TTITLE0=Anderson, Ian - Man Of The World
TTITLE1=Sheehan, Billy - Oh Well
TTITLE2=Innes Sibun - Vince Converse - Rattlesnake Shake
TTITLE3=Jonathan Mover - Larry Mitchell - Stuart Hamm - Fleetwood Mac
TTITLE4=Zoot Money/Bobby Trench - Wathcha Gonna Do
TTITLE5=Gallagher, Rory - Showbiz Blues
TTITLE6=Luther Grosvenor - Mike Kellie - Merry Go Round
TTITLE7=Bob Tench - Jones, Paul - Max Middleton - Albatross
TTITLE8=Naked Blue - Closing My Eyes
TTITLE9=Ray Gomez - Evil Woman Blues
TTITLE10=Troy Turner - Lazy Poker Blues
TTITLE11=Harvey Mandel - Jon Paris - Watch Out
TTITLE12=Harvey Mandel - Wilbur Bascomb, Jr. - Long Grey Mare
TTITLE13=Kim Lembo - A Fool No More
TTITLE14=Southside Johnny - Uptown Horns - Baby When the Sun Goes Down
EXTD=
EXTT0=
EXTT1=
EXTT2=
EXTT3=
EXTT4=
EXTT5=
EXTT6=
EXTT7=
EXTT8=
EXTT9=
EXTT10=
EXTT11=
EXTT12=
EXTT13=
EXTT14=
PLAYORDER=
